<svg width="256" height="256" viewBox="0 0 256 256" xmlns="http://www.w3.org/2000/svg">
  <defs>
    <linearGradient id="bg" x1="0%" y1="0%" x2="100%" y2="100%">
      <stop offset="0%" stop-color="#14B8A6"/>
      <stop offset="100%" stop-color="#0A5F56"/>
    </linearGradient>
  </defs>
  <rect x="0" y="0" width="256" height="256" rx="56" fill="url(#bg)"/>
  <g>
    <path d="M 112 56 h 32 a 12 12 0 0 1 12 12 v 44 h 44 a 12 12 0 0 1 12 12 v 32 a 12 12 0 0 1 -12 12 h -44 v 44 a 12 12 0 0 1 -12 12 h -32 a 12 12 0 0 1 -12 -12 v -44 h -44 a 12 12 0 0 1 -12 -12 v -32 a 12 12 0 0 1 12 -12 h 44 v -44 a 12 12 0 0 1 12 -12 z"
      fill="#F7FBFA"/>
  </g>
  <g fill="#F59E0B">
    <path d="M 196 176 l 6 14 l 14 6 l -14 6 l -6 14 l -6 -14 l -14 -6 l 14 -6 z"/>
    <path d="M 208 150 l 3 7 l 7 3 l -7 3 l -3 7 l -3 -7 l -7 -3 l 7 -3 z"/>
  </g>
</svg>
