<svg width="1200" height="630" viewBox="0 0 1200 630" xmlns="http://www.w3.org/2000/svg">
  <defs>
    <linearGradient id="bg" x1="0%" y1="0%" x2="100%" y2="100%">
      <stop offset="0%" stop-color="#0D2C28"/>
      <stop offset="100%" stop-color="#071A17"/>
    </linearGradient>
    <radialGradient id="glow" cx="85%" cy="10%" r="60%">
      <stop offset="0%" stop-color="#14B8A6" stop-opacity="0.35"/>
      <stop offset="100%" stop-color="#14B8A6" stop-opacity="0"/>
    </radialGradient>
  </defs>
  <rect width="1200" height="630" fill="url(#bg)"/>
  <rect width="1200" height="630" fill="url(#glow)"/>

  <g transform="translate(90,90)">
    <rect x="0" y="0" width="88" height="88" rx="22" fill="#14B8A6"/>
    <path d="M 38 20 h 12 a 5 5 0 0 1 5 5 v 16 h 16 a 5 5 0 0 1 5 5 v 12 a 5 5 0 0 1 -5 5 h -16 v 16 a 5 5 0 0 1 -5 5 h -12 a 5 5 0 0 1 -5 -5 v -16 h -16 a 5 5 0 0 1 -5 -5 v -12 a 5 5 0 0 1 5 -5 h 16 v -16 a 5 5 0 0 1 5 -5 z" fill="#0A2C28"/>
  </g>

  <text x="90" y="270" font-family="Georgia, serif" font-size="72" font-weight="700" fill="#FFFFFF">Farma<tspan fill="#F59E0B" font-style="italic">IA</tspan></text>

  <text x="92" y="322" font-family="Arial, sans-serif" font-size="26" fill="#9BB5AF">Tu asistente de farmacia experto en IA</text>

  <line x1="90" y1="368" x2="1110" y2="368" stroke="#1B3D38" stroke-width="1"/>

  <text x="90" y="420" font-family="Arial, sans-serif" font-size="24" fill="#D6EFE9">Copagos, interacciones medicamentosas y recetas</text>
  <text x="90" y="454" font-family="Arial, sans-serif" font-size="24" fill="#D6EFE9">electrónicas resueltas con inteligencia artificial.</text>

  <text x="90" y="560" font-family="Arial, sans-serif" font-size="20" fill="#6E938C">labstudiopna.github.io/FarmaIA</text>
</svg>
